<svg id="Layer_1" data-name="Layer 1" xmlns="http://www.w3.org/2000/svg" viewBox="0 0 161 30.34"><defs><style>.cls-1{fill:#2d7a1e;}.cls-2{fill:#62cc48;}.cls-3{fill:#fff;}</style></defs><path class="cls-1" d="M34.15,22C31.41,26.5,34.11,32,37,36c-5,7.62-12.19,12.12-16.36,11.18-5.53-1.25-4.41-11.79.8-19.3,6.26-9,16.55-11,16.6-10C38.09,18.37,35.63,19.53,34.15,22Z" transform="translate(-17 -17.66)"/><path class="cls-2" d="M45.92,22.27c2.78,4.56.32,10.34-2.37,14.68,5.06,7.68,12.11,12,16.1,10.86,5.29-1.54,3.91-12.4-1.32-20C52,18.78,42.06,17.19,42,18.21,42,18.71,44.42,19.8,45.92,22.27Z" transform="translate(-17 -17.66)"/><path class="cls-3" d="M69.06,43.59V24h1.36l12.84,9.29L96.09,24h3V43.59h-6v-12L82.53,39.25,72.07,31.61v12Z" transform="translate(-17 -17.66)"/><path class="cls-3" d="M105.3,43.59V24h15v2.18h-9v6.53h6v2.17h-6v8.71Z" transform="translate(-17 -17.66)"/><path class="cls-3" d="M125.53,43.59V24h6V41.41h9v2.18Z" transform="translate(-17 -17.66)"/><path class="cls-3" d="M146.75,43.59V24h6V43.59Z" transform="translate(-17 -17.66)"/><path class="cls-3" d="M160,43.59V38.14q0-3.82,6-4.34-6-.51-6-4.35V24h6v6.53a1.89,1.89,0,0,0,.88,1.54,3.85,3.85,0,0,0,4.25,0,1.9,1.9,0,0,0,.89-1.54V24h6v5.45q0,3.84-6,4.35,6,.53,6,4.35v5.44h-6V37.06a1.88,1.88,0,0,0-.89-1.54,3.85,3.85,0,0,0-4.25,0,1.86,1.86,0,0,0-.88,1.54v6.53Z" transform="translate(-17 -17.66)"/></svg>