<svg id="Layer_1" data-name="Layer 1" xmlns="http://www.w3.org/2000/svg" viewBox="0 0 159.54 29.06"><defs><style>.cls-1{fill:#03933e;}.cls-2{fill:#00ec64;}.cls-3{fill:#fff;}</style></defs><path class="cls-1" d="M31.15,22.57a8.14,8.14,0,0,0-1.4,7.09A8.81,8.81,0,0,0,34,35c-3.31-.07-7.11.5-10,3-4.18,3.62-3.78,9-5,9-1.83,0-6.33-12.12-1.07-19.8S36,19.84,36,20A8.4,8.4,0,0,0,31.15,22.57Z" transform="translate(-15.46 -19.94)"/><path class="cls-2" d="M43.7,22a9.34,9.34,0,0,1,1.78,7.05,1,1,0,0,1,0,.22C45.06,31.79,43.14,33.66,41,35c3-.18,7.63,0,11,3,4.46,3.9,3.91,10,5,10,1.66,0,6.19-14.09-.31-21.95C50.93,19.09,39,20,39,20A7,7,0,0,1,43.7,22Z" transform="translate(-15.46 -19.94)"/><path class="cls-3" d="M66.06,49V21h1.36L80.26,34.27,93.09,21h3V49h-6V31.88L79.53,42.8,69.07,31.88V49Z" transform="translate(-15.46 -19.94)"/><path class="cls-3" d="M102.3,49V21h15v3.12h-9v9.33h6v3.1h-6V49Z" transform="translate(-15.46 -19.94)"/><path class="cls-3" d="M122.53,49V21h6V45.88h9V49Z" transform="translate(-15.46 -19.94)"/><path class="cls-3" d="M143.75,49V21h6V49Z" transform="translate(-15.46 -19.94)"/><path class="cls-3" d="M157,49V41.21q0-5.48,6-6.21-6-.73-6-6.21V21h6v9.33a3.07,3.07,0,0,0,.88,2.2,2.91,2.91,0,0,0,4.25,0,3.08,3.08,0,0,0,.89-2.2V21h6v7.79q0,5.48-6,6.21,6,.77,6,6.23V49h-6V39.67a3.09,3.09,0,0,0-.89-2.21,2.94,2.94,0,0,0-4.25,0,3.08,3.08,0,0,0-.88,2.21V49Z" transform="translate(-15.46 -19.94)"/></svg>